<svg width="140" height="30" viewBox="0 0 140 30" fill="none" xmlns="http://www.w3.org/2000/svg">
    <path d="M4.608 13H0.972V0.993999H10.08V4.162H4.608V13ZM22.6841 13H18.5621L18.1301 11.596H13.8101L13.3781 13H9.25608L13.6841 0.993999H18.2561L22.6841 13ZM17.1581 8.428L15.9701 4.558L14.7821 8.428H17.1581ZM27.9394 13.216C25.5634 13.216 23.5834 12.424 22.5754 11.344L24.3574 8.86C25.2934 9.67 26.8774 10.012 27.7954 10.012C29.0734 10.012 29.7214 9.634 29.7214 9.202C29.7214 8.788 29.3794 8.554 27.6874 8.554H25.2214V5.386H27.6874C28.8394 5.386 29.5234 5.17 29.5234 4.792C29.5234 4.234 28.6954 4.018 27.5614 4.018C26.5354 4.018 25.2754 4.378 24.4474 5.062L22.7374 2.794C23.7994 1.624 25.6174 0.813999 27.9574 0.813999C31.2694 0.813999 33.1414 2.164 33.1414 4.144C33.1414 5.422 32.0254 6.556 30.4954 6.808C31.8274 6.952 33.3394 7.96 33.3394 9.616C33.3394 11.758 31.0534 13.216 27.9394 13.216ZM46.3663 13H42.7303V4.162H38.4283V13H34.7923V0.993999H46.3663V13ZM51.9459 13H48.3099V0.993999H54.7179C57.5259 0.993999 59.0379 2.866 59.0379 5.116C59.0379 7.348 57.5259 9.22 54.7179 9.22H51.9459V13ZM54.2499 6.052C54.8619 6.052 55.3479 5.746 55.3479 5.116C55.3479 4.468 54.8619 4.162 54.2499 4.162H51.9459V6.052H54.2499ZM66.1499 13.216C62.4419 13.216 59.5799 10.696 59.5799 7.006C59.5799 3.316 62.4419 0.795999 66.1499 0.795999C69.8579 0.795999 72.7199 3.316 72.7199 7.006C72.7199 10.696 69.8579 13.216 66.1499 13.216ZM66.1499 10.012C67.8959 10.012 69.0299 8.68 69.0299 7.006C69.0299 5.332 67.8959 4 66.1499 4C64.4039 4 63.2699 5.332 63.2699 7.006C63.2699 8.68 64.4039 10.012 66.1499 10.012ZM88.2651 13H84.6291V5.782L81.9471 13H80.3271L77.6451 5.782V13H74.0091V0.993999H79.0311L81.1371 6.754L83.2431 0.993999H88.2651V13ZM90.2161 0.993999H100.224V4.162H93.8521V5.116H96.8041C99.5041 5.116 100.944 6.898 100.944 9.04C100.944 11.2 99.5041 13 96.8041 13H90.2161V0.993999ZM96.3541 8.284H93.8521V9.832H96.3541C96.8581 9.832 97.2541 9.58 97.2541 9.058C97.2541 8.536 96.8581 8.284 96.3541 8.284ZM114.266 13H110.144L109.712 11.596H105.392L104.96 13H100.838L105.266 0.993999H109.838L114.266 13ZM108.74 8.428L107.552 4.558L106.364 8.428H108.74ZM126.487 13H122.851V8.41H118.549V13H114.913V0.993999H118.549V5.242H122.851V0.993999H126.487V13ZM139.861 13H135.433L132.733 8.77L132.067 9.67V13H128.431V0.993999H132.067V5.494L135.217 0.993999H139.663L135.127 6.574L139.861 13ZM4.428 16.994V20.792C4.428 21.962 5.13 22.268 6.084 22.268C6.768 22.268 7.344 22.178 7.83 21.998V16.994H11.466V29H7.83V25.166C6.912 25.346 6.3 25.436 5.544 25.436C2.25 25.436 0.738 23.564 0.738 20.792V16.994H4.428ZM19.6273 29H15.9913V20.162H12.7693V16.994H22.8313V20.162H19.6273V29ZM29.6928 29.216C25.9848 29.216 23.1228 26.696 23.1228 23.006C23.1228 19.316 25.9848 16.796 29.6928 16.796C33.4008 16.796 36.2628 19.316 36.2628 23.006C36.2628 26.696 33.4008 29.216 29.6928 29.216ZM29.6928 26.012C31.4388 26.012 32.5728 24.68 32.5728 23.006C32.5728 21.332 31.4388 20 29.6928 20C27.9468 20 26.8128 21.332 26.8128 23.006C26.8128 24.68 27.9468 26.012 29.6928 26.012ZM41.4401 25.994H37.1201V23.294H41.4401V25.994ZM49.1586 29H45.5226V20.162H42.3006V16.994H52.3626V20.162H49.1586V29ZM59.2241 29.216C55.5161 29.216 52.6541 26.696 52.6541 23.006C52.6541 19.316 55.5161 16.796 59.2241 16.796C62.9321 16.796 65.7941 19.316 65.7941 23.006C65.7941 26.696 62.9321 29.216 59.2241 29.216ZM59.2241 26.012C60.9701 26.012 62.1041 24.68 62.1041 23.006C62.1041 21.332 60.9701 20 59.2241 20C57.4781 20 56.3441 21.332 56.3441 23.006C56.3441 24.68 57.4781 26.012 59.2241 26.012Z"
          fill="#4F6AE8" style="fill:#4F6AE8;fill:color(display-p3 0.3098 0.4157 0.9098);fill-opacity:1;"/>
</svg>
